<?xml version="1.0" encoding="UTF-8"?>
<svg xmlns="http://www.w3.org/2000/svg" id="Layer_1" data-name="Layer 1" viewBox="0 0 24 24" width="512" height="512"><path d="M9,12c3.309,0,6-2.691,6-6S12.309,0,9,0,3,2.691,3,6s2.691,6,6,6Zm0-10c2.206,0,4,1.794,4,4s-1.794,4-4,4-4-1.794-4-4,1.794-4,4-4Zm14.122,9.879c-1.134-1.134-3.11-1.134-4.243,0l-7.879,7.878v4.243h4.243l7.878-7.878c.567-.567,.879-1.32,.879-2.122s-.312-1.555-.878-2.121Zm-1.415,2.828l-7.292,7.293h-1.415v-1.415l7.293-7.292c.377-.378,1.036-.378,1.414,0,.189,.188,.293,.439,.293,.707s-.104,.518-.293,.707Zm-9.778,1.293H5c-1.654,0-3,1.346-3,3v5H0v-5c0-2.757,2.243-5,5-5H13c.289,0,.568,.038,.844,.085l-1.915,1.915Z"/></svg>
